<svg xmlns="http://www.w3.org/2000/svg" version="1.1" viewBox="250 250 524 524" fill="#ffffff">
  <path d="M486.3,256.2c216.1-7.6,332.7,257,175.5,408.3,25,24,83.4,79,109.3,103.4-26.7-.3-53.3-.3-80-.2-60.1-56.6-137.3-132.3-197.2-189.5-.1-24.3,0-48.7,0-73,26.2,23.2,52,49.3,77.1,73.7,72.3-67,30.4-188.4-68.7-194.2-63.4-4.3-120.4,50.2-120.5,113.4l-50.5.2c0-11,3.1-26.6,5.5-37.3,30.8-123.8,183.8-170.6,273.9-77.2,61.3,62,62.6,171.2-4,229.8,6.9,6.5,13.6,13.2,20.3,20,120-113.8,41.3-319.7-123.2-326.8-106.4-6.2-198.5,86.3-199.4,191.1-16.1.4-32.8.2-48.9.1-.1-126.9,102.8-238.2,230.7-241.7Z"/>
  <path d="M493.5,614.7c51.6,48.7,105.6,103,156.7,152.9-20.2.4-41.1,0-61.4,0l-93.7-91.9-1.7-23.6s0-24.8.1-37.3Z"/>
</svg>